<svg width="14" height="10" viewBox="0 0 14 10" fill="none" xmlns="http://www.w3.org/2000/svg">
<path d="M6.04568 1.74911H7.95435C8.83759 1.74981 9.60446 2.28583 9.80702 3.04406C9.82401 3.10727 9.88794 3.15195 9.9616 3.1521H12.8864C12.9286 3.15224 12.9691 3.13755 12.999 3.11129C13.0289 3.08504 13.0457 3.04936 13.0457 3.01216V1.60866C13.0457 1.31097 12.9116 1.02549 12.6728 0.815041C12.4341 0.604595 12.1104 0.486436 11.7729 0.486572H2.22718C1.88966 0.486436 1.5659 0.604595 1.32719 0.815041C1.08847 1.02549 0.954346 1.31097 0.954346 1.60866V3.01216C0.954345 3.04936 0.971142 3.08504 1.00102 3.11129C1.03091 3.13755 1.07141 3.15224 1.1136 3.1521H4.03843C4.11224 3.15233 4.1764 3.10748 4.19301 3.04406C4.39557 2.28583 5.16244 1.74981 6.04568 1.74911Z" fill="black"/>
<path d="M0.636417 3.99439C0.467581 3.99425 0.305616 4.05334 0.186231 4.15864C0.0668464 4.26394 -0.000154698 4.40679 2.68218e-07 4.5557V7.50224C-2.50467e-07 7.76901 0.212885 7.99893 0.50925 8.05224C0.583199 8.06565 0.636306 8.12302 0.636417 8.18961V9.32613C0.636417 9.63614 0.92135 9.88745 1.27283 9.88745C1.62432 9.88745 1.90925 9.63614 1.90925 9.32613V8.20401C1.9091 8.16681 1.92574 8.13108 1.95552 8.10472C1.98529 8.07837 2.02573 8.06355 2.06792 8.06355H11.9321C11.9743 8.06355 12.0147 8.07837 12.0445 8.10472C12.0743 8.13108 12.0909 8.16681 12.0907 8.20401V9.32613C12.0907 9.63614 12.3757 9.88745 12.7272 9.88745C13.0786 9.88745 13.3636 9.63614 13.3636 9.32613V8.18961C13.3637 8.12302 13.4168 8.06565 13.4907 8.05224C13.7871 7.99893 14 7.76901 14 7.50224V4.5557C14.0002 4.40679 13.9332 4.26394 13.8138 4.15864C13.6944 4.05334 13.5324 3.99425 13.3636 3.99439H0.636417Z" fill="black"/>
</svg>
