<svg width="17" height="15" viewBox="0 0 17 15" fill="none" xmlns="http://www.w3.org/2000/svg">
<path fill-rule="evenodd" clip-rule="evenodd" d="M15.3333 8.62804C15.5178 8.62922 15.6935 8.69727 15.8193 8.8162C15.9455 8.93279 16.011 9.09044 16 9.25132C15.7997 12.2038 13.0268 14.5077 9.67333 14.5081H6.32666C2.97324 14.5077 0.200326 12.2038 -4.91686e-06 9.25132C-0.00878807 9.09084 0.0560946 8.93399 0.179995 8.8162C0.304916 8.69581 0.481629 8.62749 0.666662 8.62804H3.07866C3.22565 8.62926 3.3562 8.54542 3.4 8.42165C3.5741 7.93336 4.08631 7.60047 4.66666 7.59845H8.00333C8.58368 7.60047 9.0959 7.93336 9.27 8.42165C9.31344 8.54438 9.44224 8.62797 9.588 8.62804H13.166C13.3501 8.62804 13.4993 8.49641 13.4993 8.33404V2.16003C13.5001 1.92766 13.3456 1.71669 13.1052 1.62171C12.8647 1.52674 12.5834 1.56556 12.3873 1.72079L12.114 1.96187C12.0251 2.04088 11.9943 2.15742 12.0347 2.26293C12.2671 2.8685 12.0907 3.53796 11.5793 3.99106L11.446 4.1116C11.1857 4.34115 10.7637 4.34115 10.5033 4.1116L8.74 2.55575C8.47974 2.32614 8.47974 1.95393 8.74 1.72432L8.87667 1.60378C9.39649 1.16578 10.147 1.01492 10.8307 1.21099C10.9494 1.24427 11.0793 1.21637 11.1673 1.13867L11.476 0.866425C12.0593 0.391039 12.9062 0.265089 13.634 0.545502C14.3617 0.825916 14.8325 1.45956 14.8333 2.16003V8.33404C14.8333 8.49641 14.9826 8.62804 15.1667 8.62804H15.3333ZM7.66667 12.303C7.85076 12.303 8 12.1713 8 12.009V9.06891C8 8.90653 7.85076 8.7749 7.66667 8.7749H4.99999C4.8159 8.7749 4.66666 8.90653 4.66666 9.06891V12.009C4.66666 12.1713 4.8159 12.303 4.99999 12.303H7.66667Z" fill="black"/>
<path d="M6.00001 3.97581C6.09626 3.97655 6.19155 3.95889 6.27934 3.92406L7.49001 3.43124C7.70663 3.34353 7.85374 3.16053 7.87594 2.95118C7.89813 2.74184 7.79203 2.53795 7.59761 2.41633C7.40318 2.2947 7.14996 2.27381 6.93334 2.36153L5.72067 2.85375C5.43638 2.96946 5.28168 3.2441 5.34883 3.51386C5.41599 3.78363 5.68691 3.97582 6.00001 3.97581Z" fill="black"/>
<path d="M9.41467 7.16339C9.75321 7.29077 10.1447 7.15206 10.2893 6.85352L10.8133 5.77162C10.9485 5.47486 10.7899 5.13725 10.4564 5.0117C10.1229 4.88615 9.73683 5.0187 9.58733 5.31005L9.06667 6.39371C8.92318 6.69102 9.07859 7.03475 9.41467 7.16339Z" fill="black"/>
<path d="M6.99063 5.73276C7.24968 5.96344 7.67168 5.96528 7.9333 5.73687L8.88129 4.91015C9.13583 4.68076 9.13477 4.31371 8.8789 4.08547C8.62303 3.85722 8.20691 3.85213 7.94396 4.07403L6.99597 4.90133C6.73424 5.12964 6.73185 5.50185 6.99063 5.73276Z" fill="black"/>
</svg>
