<svg width="16" height="15" viewBox="0 0 16 15" fill="none" xmlns="http://www.w3.org/2000/svg">
<path d="M4.66667 2.92407C5.03486 2.92407 5.33334 2.66082 5.33334 2.33607V0.866075C5.33334 0.541332 5.03486 0.278076 4.66667 0.278076C4.29848 0.278076 4 0.541332 4 0.866075V2.33607C4 2.66082 4.29848 2.92407 4.66667 2.92407Z" fill="black"/>
<path d="M3 4.39404C3 4.06923 2.70152 3.80591 2.33333 3.80591H0.666667C0.298477 3.80591 0 4.06923 0 4.39404C0 4.71886 0.298477 4.98218 0.666667 4.98218H2.33333C2.70152 4.98218 3 4.71886 3 4.39404Z" fill="black"/>
<path d="M2.33333 9.68604H0.666667C0.298477 9.68604 0 9.9493 0 10.274C0 10.5988 0.298477 10.8621 0.666667 10.8621H2.33333C2.70152 10.8621 3 10.5988 3 10.274C3 9.9493 2.70152 9.68604 2.33333 9.68604Z" fill="black"/>
<path d="M11.3333 0.278076C10.9651 0.278076 10.6666 0.541332 10.6666 0.866075V2.33607C10.6666 2.66082 10.9651 2.92407 11.3333 2.92407C11.7015 2.92407 12 2.66082 12 2.33607V0.866075C12 0.541332 11.7015 0.278076 11.3333 0.278076Z" fill="black"/>
<path d="M4.66667 11.7441C4.29848 11.7441 4 12.0074 4 12.3321V13.8019C4 14.1267 4.29848 14.3899 4.66667 14.3899C5.03486 14.3899 5.33334 14.1267 5.33334 13.8019V12.3321C5.33334 12.0074 5.03486 11.7441 4.66667 11.7441Z" fill="black"/>
<path d="M11.3333 11.7441C10.9651 11.7441 10.6666 12.0074 10.6666 12.3321V13.8019C10.6666 14.1267 10.9651 14.3899 11.3333 14.3899C11.7015 14.3899 12 14.1267 12 13.8019V12.3321C12 12.0074 11.7015 11.7441 11.3333 11.7441Z" fill="black"/>
<path d="M13.6667 4.98218H15.3333C15.7015 4.98218 16 4.71886 16 4.39404C16 4.06923 15.7015 3.80591 15.3333 3.80591H13.6667C13.2985 3.80591 13 4.06923 13 4.39404C13 4.71886 13.2985 4.98218 13.6667 4.98218Z" fill="black"/>
<path d="M15.3333 9.68604H13.6667C13.2985 9.68604 13 9.9493 13 10.274C13 10.5988 13.2985 10.8621 13.6667 10.8621H15.3333C15.7015 10.8621 16 10.5988 16 10.274C16 9.9493 15.7015 9.68604 15.3333 9.68604Z" fill="black"/>
<path fill-rule="evenodd" clip-rule="evenodd" d="M11.3333 3.80591C11.7015 3.80591 12 4.06917 12 4.39392V10.274C12 10.5988 11.7015 10.8621 11.3333 10.8621H4.66667C4.29848 10.8621 4 10.5988 4 10.274V4.39392C4 4.06917 4.29848 3.80591 4.66667 3.80591H11.3333ZM10.3333 9.68604C10.5174 9.68604 10.6667 9.5544 10.6667 9.39203V5.27594C10.6667 5.11356 10.5174 4.98193 10.3333 4.98193H5.66668C5.48258 4.98193 5.33334 5.11356 5.33334 5.27594V9.39203C5.33334 9.5544 5.48258 9.68604 5.66668 9.68604H10.3333Z" fill="black"/>
</svg>
